<svg xmlns="http://www.w3.org/2000/svg" version="1.1" xmlns:xlink="http://www.w3.org/1999/xlink" xmlns:svgjs="http://svgjs.dev/svgjs" viewBox="0 0 800 800" preserveAspectRatio="xMidYMid slice"><defs><pattern id="pppixelate-pattern" width="20" height="20" patternUnits="userSpaceOnUse" patternTransform="translate(-20 -18) scale(40) rotate(0)" shape-rendering="crispEdges">
    <rect width="1" height="1" x="9" y="5" fill="#20365e"></rect><rect width="1" height="1" x="10" y="5" fill="#476ea8"></rect><rect width="1" height="1" x="11" y="5" fill="#476ea8"></rect><rect width="1" height="1" x="8" y="6" fill="#20365e"></rect><rect width="1" height="1" x="9" y="6" fill="#476ea8"></rect><rect width="1" height="1" x="10" y="6" fill="#476ea8"></rect><rect width="1" height="1" x="11" y="6" fill="#476ea8"></rect><rect width="1" height="1" x="12" y="6" fill="#476ea8"></rect><rect width="1" height="1" x="8" y="7" fill="#20365e"></rect><rect width="1" height="1" x="9" y="7" fill="#476ea8"></rect><rect width="1" height="1" x="11" y="7" fill="#20365e"></rect><rect width="1" height="1" x="12" y="7" fill="#476ea8"></rect><rect width="1" height="1" x="8" y="8" fill="#20365e"></rect><rect width="1" height="1" x="9" y="8" fill="#476ea8"></rect><rect width="1" height="1" x="11" y="8" fill="#20365e"></rect><rect width="1" height="1" x="12" y="8" fill="#476ea8"></rect><rect width="1" height="1" x="7" y="9" fill="#20365e"></rect><rect width="1" height="1" x="8" y="9" fill="#476ea8"></rect><rect width="1" height="1" x="12" y="9" fill="#20365e"></rect><rect width="1" height="1" x="13" y="9" fill="#476ea8"></rect><rect width="1" height="1" x="7" y="10" fill="#20365e"></rect><rect width="1" height="1" x="8" y="10" fill="#476ea8"></rect><rect width="1" height="1" x="12" y="10" fill="#20365e"></rect><rect width="1" height="1" x="13" y="10" fill="#476ea8"></rect><rect width="1" height="1" x="6" y="11" fill="#20365e"></rect><rect width="1" height="1" x="7" y="11" fill="#476ea8"></rect><rect width="1" height="1" x="8" y="11" fill="#476ea8"></rect><rect width="1" height="1" x="9" y="11" fill="#476ea8"></rect><rect width="1" height="1" x="10" y="11" fill="#476ea8"></rect><rect width="1" height="1" x="11" y="11" fill="#476ea8"></rect><rect width="1" height="1" x="12" y="11" fill="#476ea8"></rect><rect width="1" height="1" x="13" y="11" fill="#476ea8"></rect><rect width="1" height="1" x="14" y="11" fill="#476ea8"></rect><rect width="1" height="1" x="6" y="12" fill="#20365e"></rect><rect width="1" height="1" x="7" y="12" fill="#476ea8"></rect><rect width="1" height="1" x="8" y="12" fill="#20365e"></rect><rect width="1" height="1" x="9" y="12" fill="#20365e"></rect><rect width="1" height="1" x="10" y="12" fill="#20365e"></rect><rect width="1" height="1" x="11" y="12" fill="#20365e"></rect><rect width="1" height="1" x="12" y="12" fill="#20365e"></rect><rect width="1" height="1" x="13" y="12" fill="#476ea8"></rect><rect width="1" height="1" x="14" y="12" fill="#476ea8"></rect><rect width="1" height="1" x="6" y="13" fill="#20365e"></rect><rect width="1" height="1" x="7" y="13" fill="#476ea8"></rect><rect width="1" height="1" x="13" y="13" fill="#20365e"></rect><rect width="1" height="1" x="14" y="13" fill="#476ea8"></rect><rect width="1" height="1" x="5" y="14" fill="#20365e"></rect><rect width="1" height="1" x="6" y="14" fill="#476ea8"></rect><rect width="1" height="1" x="7" y="14" fill="#476ea8"></rect><rect width="1" height="1" x="13" y="14" fill="#20365e"></rect><rect width="1" height="1" x="14" y="14" fill="#476ea8"></rect><rect width="1" height="1" x="15" y="14" fill="#476ea8"></rect><rect width="1" height="1" x="5" y="15" fill="#20365e"></rect><rect width="1" height="1" x="6" y="15" fill="#476ea8"></rect><rect width="1" height="1" x="14" y="15" fill="#20365e"></rect><rect width="1" height="1" x="15" y="15" fill="#476ea8"></rect><rect width="1" height="1" x="5" y="16" fill="#20365e"></rect><rect width="1" height="1" x="6" y="16" fill="#476ea8"></rect><rect width="1" height="1" x="14" y="16" fill="#20365e"></rect><rect width="1" height="1" x="15" y="16" fill="#476ea8"></rect>
  </pattern></defs><rect width="100%" height="100%" fill="url(#pppixelate-pattern)"></rect></svg>